<mxfile host="app.diagrams.net" agent="Mozilla/5.0 (X11; Linux x86_64) AppleWebKit/537.36 (KHTML, like Gecko) Chrome/134.0.0.0 Safari/537.36" version="26.1.1">
  <diagram name="Page-1" id="3FVUTZca3FV0Z_zw37Kj">
    <mxGraphModel dx="1318" dy="566" grid="1" gridSize="10" guides="1" tooltips="1" connect="1" arrows="1" fold="1" page="1" pageScale="1" pageWidth="850" pageHeight="1100" math="0" shadow="0">
      <root>
        <mxCell id="0" />
        <mxCell id="1" parent="0" />
        <mxCell id="NewgQ8-i6j9t_aCIGWI3-1" value="Admin" style="shape=umlActor;verticalLabelPosition=bottom;verticalAlign=top;html=1;outlineConnect=0;" vertex="1" parent="1">
          <mxGeometry x="640" y="270" width="30" height="60" as="geometry" />
        </mxCell>
        <mxCell id="NewgQ8-i6j9t_aCIGWI3-2" value="" style="swimlane;startSize=0;" vertex="1" parent="1">
          <mxGeometry x="260" y="60" width="280" height="520" as="geometry" />
        </mxCell>
        <mxCell id="NewgQ8-i6j9t_aCIGWI3-4" value="Login&lt;br&gt;User/Admin" style="rounded=0;whiteSpace=wrap;html=1;" vertex="1" parent="NewgQ8-i6j9t_aCIGWI3-2">
          <mxGeometry x="80" y="50" width="120" height="60" as="geometry" />
        </mxCell>
        <mxCell id="NewgQ8-i6j9t_aCIGWI3-6" value="Get Product" style="rounded=0;whiteSpace=wrap;html=1;" vertex="1" parent="NewgQ8-i6j9t_aCIGWI3-2">
          <mxGeometry x="80" y="240" width="120" height="60" as="geometry" />
        </mxCell>
        <mxCell id="NewgQ8-i6j9t_aCIGWI3-5" value="CRUD Product" style="rounded=0;whiteSpace=wrap;html=1;" vertex="1" parent="NewgQ8-i6j9t_aCIGWI3-2">
          <mxGeometry x="80" y="330" width="120" height="60" as="geometry" />
        </mxCell>
        <mxCell id="NewgQ8-i6j9t_aCIGWI3-15" value="Product Management System" style="text;html=1;align=center;verticalAlign=middle;whiteSpace=wrap;rounded=0;" vertex="1" parent="NewgQ8-i6j9t_aCIGWI3-2">
          <mxGeometry x="40" y="10" width="200" height="30" as="geometry" />
        </mxCell>
        <mxCell id="NewgQ8-i6j9t_aCIGWI3-16" value="Register" style="rounded=0;whiteSpace=wrap;html=1;" vertex="1" parent="NewgQ8-i6j9t_aCIGWI3-2">
          <mxGeometry x="80" y="150" width="120" height="60" as="geometry" />
        </mxCell>
        <mxCell id="NewgQ8-i6j9t_aCIGWI3-18" value="Transaction" style="rounded=0;whiteSpace=wrap;html=1;" vertex="1" parent="NewgQ8-i6j9t_aCIGWI3-2">
          <mxGeometry x="80" y="420" width="120" height="60" as="geometry" />
        </mxCell>
        <mxCell id="NewgQ8-i6j9t_aCIGWI3-3" value="User" style="shape=umlActor;verticalLabelPosition=bottom;verticalAlign=top;html=1;outlineConnect=0;" vertex="1" parent="1">
          <mxGeometry x="110" y="270" width="30" height="60" as="geometry" />
        </mxCell>
        <mxCell id="NewgQ8-i6j9t_aCIGWI3-10" value="" style="endArrow=classic;html=1;rounded=0;entryX=0;entryY=0.5;entryDx=0;entryDy=0;" edge="1" parent="1" source="NewgQ8-i6j9t_aCIGWI3-3" target="NewgQ8-i6j9t_aCIGWI3-4">
          <mxGeometry width="50" height="50" relative="1" as="geometry">
            <mxPoint x="460" y="220" as="sourcePoint" />
            <mxPoint x="510" y="170" as="targetPoint" />
          </mxGeometry>
        </mxCell>
        <mxCell id="NewgQ8-i6j9t_aCIGWI3-11" value="" style="endArrow=classic;html=1;rounded=0;entryX=1;entryY=0.5;entryDx=0;entryDy=0;exitX=0;exitY=0.3333333333333333;exitDx=0;exitDy=0;exitPerimeter=0;" edge="1" parent="1" source="NewgQ8-i6j9t_aCIGWI3-1" target="NewgQ8-i6j9t_aCIGWI3-4">
          <mxGeometry width="50" height="50" relative="1" as="geometry">
            <mxPoint x="460" y="220" as="sourcePoint" />
            <mxPoint x="510" y="170" as="targetPoint" />
          </mxGeometry>
        </mxCell>
        <mxCell id="NewgQ8-i6j9t_aCIGWI3-14" value="" style="endArrow=classic;html=1;rounded=0;entryX=1;entryY=0.5;entryDx=0;entryDy=0;" edge="1" parent="1" source="NewgQ8-i6j9t_aCIGWI3-1" target="NewgQ8-i6j9t_aCIGWI3-5">
          <mxGeometry width="50" height="50" relative="1" as="geometry">
            <mxPoint x="460" y="220" as="sourcePoint" />
            <mxPoint x="510" y="170" as="targetPoint" />
          </mxGeometry>
        </mxCell>
        <mxCell id="NewgQ8-i6j9t_aCIGWI3-12" value="" style="endArrow=classic;html=1;rounded=0;entryX=0;entryY=0.5;entryDx=0;entryDy=0;" edge="1" parent="1" source="NewgQ8-i6j9t_aCIGWI3-3" target="NewgQ8-i6j9t_aCIGWI3-6">
          <mxGeometry width="50" height="50" relative="1" as="geometry">
            <mxPoint x="170" y="230" as="sourcePoint" />
            <mxPoint x="330" y="220" as="targetPoint" />
          </mxGeometry>
        </mxCell>
        <mxCell id="NewgQ8-i6j9t_aCIGWI3-17" value="" style="endArrow=classic;html=1;rounded=0;entryX=0;entryY=0.5;entryDx=0;entryDy=0;exitX=0.5;exitY=0.5;exitDx=0;exitDy=0;exitPerimeter=0;" edge="1" parent="1" source="NewgQ8-i6j9t_aCIGWI3-3" target="NewgQ8-i6j9t_aCIGWI3-16">
          <mxGeometry width="50" height="50" relative="1" as="geometry">
            <mxPoint x="170" y="235" as="sourcePoint" />
            <mxPoint x="510" y="290" as="targetPoint" />
          </mxGeometry>
        </mxCell>
        <mxCell id="NewgQ8-i6j9t_aCIGWI3-19" value="" style="endArrow=classic;html=1;rounded=0;entryX=0;entryY=0.5;entryDx=0;entryDy=0;exitX=1;exitY=1;exitDx=0;exitDy=0;exitPerimeter=0;" edge="1" parent="1" source="NewgQ8-i6j9t_aCIGWI3-3" target="NewgQ8-i6j9t_aCIGWI3-18">
          <mxGeometry width="50" height="50" relative="1" as="geometry">
            <mxPoint x="460" y="390" as="sourcePoint" />
            <mxPoint x="510" y="340" as="targetPoint" />
          </mxGeometry>
        </mxCell>
        <mxCell id="NewgQ8-i6j9t_aCIGWI3-20" value="" style="endArrow=classic;html=1;rounded=0;entryX=1;entryY=0.5;entryDx=0;entryDy=0;exitX=0;exitY=1;exitDx=0;exitDy=0;exitPerimeter=0;" edge="1" parent="1" source="NewgQ8-i6j9t_aCIGWI3-1" target="NewgQ8-i6j9t_aCIGWI3-18">
          <mxGeometry width="50" height="50" relative="1" as="geometry">
            <mxPoint x="460" y="470" as="sourcePoint" />
            <mxPoint x="510" y="420" as="targetPoint" />
          </mxGeometry>
        </mxCell>
      </root>
    </mxGraphModel>
  </diagram>
</mxfile>
